# xmcd CD database file
# 
# Track frame offsets:
# 	150
# 	20646
# 	39827
# 	58060
# 	65925
# 	91289
# 	108425
# 	136661
# 	173959
# 	194547
# 	226124
# 	260875
# 	284313
# 
# Disc length: 4160 seconds
# 
# Submitted via: Nero 5.0
# 
# Revision: 1
# Processed by: cddbd v1.4b41PL1 Copyright (c) Steve Scherf et al.
#
DISCID=bc103e0d
DTITLE=Mixte - Blues and jazz
DYEAR=1900
DGENRE=
TTITLE0=Blues and jazz
TTITLE1=Blues and jazz
TTITLE2=Blues and jazz
TTITLE3=Blues and jazz
TTITLE4=Blues and jazz
TTITLE5=Blues and jazz
TTITLE6=Blues and jazz
TTITLE7=Blues and jazz
TTITLE8=Blues and jazz
TTITLE9=Blues and jazz
TTITLE10=Blues and jazz
TTITLE11=Blues and jazz
TTITLE12=Blues and jazz
EXTD=
EXTT0=
EXTT1=
EXTT2=
EXTT3=
EXTT4=
EXTT5=
EXTT6=
EXTT7=
EXTT8=
EXTT9=
EXTT10=
EXTT11=
EXTT12=
PLAYORDER=
